PathFileType	4	(X/Y/Z)	C:/Users/opensim2020/Desktop/walking_exp_matlab/subject03_walking11_straight_04.trc																																																																																																																																								
DataRate	CameraRate	NumFrames	NumMarkers	Units	OrigDataRate	OrigDataStartFrame	OrigNumFrames																																																																																																																																				
100	100	6	46	mm	100	3879	350																																																																																																																																				
Frame#	Time	LFHD			RFHD			LBHD			RBHD			C7			T10			CLAV			STRN			RBAK			LSHO			LUPA			LELB			LFRM			LWRA			LWRB			LFIN			RSHO			RUPA			RELB			RFRM			RWRA			RWRB			RFIN			LASI			RASI			LPSI			RPSI			LTHI			LKNE			LTIB			LANK			LHEE			LTOE			RTHI			RKNE			RTIB			RANK			RHEE			RTOE			*39			*40			*41			*42			*43			*44			*45		
		X1	Y1	Z1	X2	Y2	Z2	X3	Y3	Z3	X4	Y4	Z4	X5	Y5	Z5	X6	Y6	Z6	X7	Y7	Z7	X8	Y8	Z8	X9	Y9	Z9	X10	Y10	Z10	X11	Y11	Z11	X12	Y12	Z12	X13	Y13	Z13	X14	Y14	Z14	X15	Y15	Z15	X16	Y16	Z16	X17	Y17	Z17	X18	Y18	Z18	X19	Y19	Z19	X20	Y20	Z20	X21	Y21	Z21	X22	Y22	Z22	X23	Y23	Z23	X24	Y24	Z24	X25	Y25	Z25	X26	Y26	Z26	X27	Y27	Z27	X28	Y28	Z28	X29	Y29	Z29	X30	Y30	Z30	X31	Y31	Z31	X32	Y32	Z32	X33	Y33	Z33	X34	Y34	Z34	X35	Y35	Z35	X36	Y36	Z36	X37	Y37	Z37	X38	Y38	Z38	X39	Y39	Z39	X40	Y40	Z40	X41	Y41	Z41	X42	Y42	Z42	X43	Y43	Z43	X44	Y44	Z44	X45	Y45	Z45	X46	Y46	Z46
																																																																																																																																											
132	1.31	-150.11967	1595.57605	947.6366	-155.89848	1607.47437	1080.02869	-281.21957	1562.22986	948.2746	-282.07462	1573.10046	1078.59412	-325.93518	1406.10986	1014.47089	-368.3175	1092.35291	1014.57056	-208.19452	1323.96436	1016.68073	-170.02448	1158.79956	1014.763	-388.05945	1233.1748	1112.76099	-252.58961	1360.21387	858.74701	-288.47296	1161.96814	794.41772	-298.87079	1037.9469	787.83588	-287.12729	908.27667	794.00311	-280.38715	791.06903	829.91864	-303.72543	795.62787	779.06921	-298.15253	711.77588	793.58795	-253.04655	1351.01465	1175.30676	-222.02942	1135.80701	1253.6709	-179.8566	1031.72888	1267.30945	-119.69834	909.33167	1262.30273	-62.61516	831.85986	1219.89307	-86.0587	815.03986	1264.99341	-38.78836	759.38159	1250.77905	-195.61922	924.25684	908.62744	-212.67259	924.24872	1146.91602	-361.33884	947.64624	943.88354	-368.93951	960.34338	1093.7323	-196.72121	627.03662	863.29254	-144.83069	459.07144	908.07098	-140.66954	269.00858	904.62579	-90.96678	63.56449	935.91663	-126.35087	27.9979	973.84137	60.39427	38.83945	966.9577	-319.03427	638.1239	1177.35352	-345.42163	459.70001	1143.40857	-454.31094	297.54529	1136.71033	-552.93262	105.54855	1081.37073	-600.21387	89.54501	1026.22192	-427.4772	30.05553	1073.45117	-230.55547	1668.66296	987.83215	NaN	NaN	NaN	NaN	NaN	NaN	NaN	NaN	NaN	NaN	NaN	NaN	NaN	NaN	NaN	NaN	NaN	NaN
133	1.32	-142.06317	1596.08923	946.5257	-147.93893	1608.13269	1078.94714	-273.07242	1562.54004	947.1601	-274.04953	1573.68286	1077.62659	-317.53043	1406.53088	1013.13635	-359.46539	1092.56189	1013.84314	-199.84511	1324.55225	1015.88428	-161.20711	1159.42786	1014.31335	-379.97025	1233.23096	1111.19714	-243.58421	1360.21399	857.73816	-278.72955	1161.72156	793.64624	-288.69769	1037.62671	787.05896	-277.08569	907.93237	793.58875	-270.56137	790.59363	830.04669	-293.70053	795.29413	778.7146	-288.21603	711.42865	793.38751	-245.31319	1351.33521	1174.52002	-215.17357	1135.59314	1252.30627	-173.3476	1031.23914	1265.77161	-113.62601	908.55573	1260.37146	-56.66101	831.18591	1217.80396	-80.40734	814.18811	1262.745	-33.27644	758.55481	1248.44849	-185.90508	925.21851	908.19318	-203.47079	923.9989	1146.3739	-351.87097	948.70789	943.38428	-359.57294	960.36816	1093.33569	-187.93556	628.51892	863.57404	-138.37589	459.5285	907.64197	-135.03166	269.2211	903.98041	-88.35474	63.33687	936.77161	-124.7422	28.74472	974.00745	62.92849	36.54182	965.91272	-309.83279	637.80591	1177.19958	-336.24054	459.37619	1144.05212	-448.09167	299.03137	1137.61462	-550.30347	108.58467	1082.14465	-597.94385	93.95383	1026.95947	-427.0726	30.15591	1073.72021	-221.61534	1663.88	994.93292	NaN	NaN	NaN	NaN	NaN	NaN	NaN	NaN	NaN	NaN	NaN	NaN	NaN	NaN	NaN	NaN	NaN	NaN
134	1.33	-133.92909	1596.68555	945.52338	-139.91504	1608.87598	1077.86694	-265.06235	1563.18042	946.11182	-266.02515	1574.34985	1076.52612	-309.20908	1407.16028	1011.87994	-350.49033	1092.89575	1013.30267	-191.51289	1325.30908	1015.10248	-152.38123	1160.354	1013.75983	-371.80167	1233.51636	1109.69263	-234.79338	1360.54773	856.79828	-268.85864	1161.84216	792.88361	-278.44507	1037.64026	786.42261	-266.78644	907.92133	793.16309	-260.28329	790.80963	829.33252	-283.21191	795.24365	778.25494	-277.84747	711.48773	793.02826	-237.47484	1351.94543	1173.66284	-208.30247	1135.70117	1250.85852	-166.9783	1031.02454	1264.11426	-107.93756	908.00262	1258.42932	-51.12328	830.57104	1215.79297	-75.19911	813.45856	1260.45874	-28.2658	757.70032	1246.17896	-176.39763	926.80084	907.76367	-194.07391	923.98346	1145.7124	-342.59488	950.22137	942.97778	-350.1835	960.56403	1093.13721	-179.87361	630.05078	863.79047	-131.33525	460.34976	907.45776	-129.57524	269.56631	903.51111	-87.18128	63.54483	937.5459	-124.39916	29.36543	974.30438	64.68178	35.25913	964.91272	-300.28998	637.51355	1177.04028	-326.47128	459.00464	1144.73938	-441.84482	300.7355	1138.0332	-547.4903	112.26399	1083.06982	-595.29254	99.11492	1027.58154	-426.94626	29.97815	1074.06299	-212.79172	1669.2572	987.79553	NaN	NaN	NaN	NaN	NaN	NaN	NaN	NaN	NaN	NaN	NaN	NaN	NaN	NaN	NaN	NaN	NaN	NaN
135	1.34	-125.80412	1597.61328	944.47626	-131.9236	1609.81616	1076.74451	-256.94928	1563.88953	945.01862	-257.98938	1575.16968	1075.34656	-301.00421	1407.85229	1010.90253	-341.61783	1093.45898	1012.88391	-183.1725	1326.22632	1014.31342	-143.65585	1161.45679	1013.23138	-363.56607	1234.01392	1108.2959	-226.02101	1361.20032	855.91248	-258.80032	1162.21802	792.11755	-267.80695	1038.00293	785.7536	-256.12341	908.25708	792.67914	-249.71584	791.24438	828.9234	-272.41721	795.51569	777.68475	-267.06137	711.74377	792.6701	-229.50426	1352.8783	1172.77563	-201.42744	1136.04114	1249.30945	-160.69957	1031.04797	1262.33167	-102.46732	907.63257	1256.46399	-45.97807	829.9978	1213.80347	-70.40823	812.86047	1258.27979	-23.71362	756.93689	1243.99207	-166.94815	928.60797	907.28741	-184.75423	924.14606	1144.90649	-333.23145	951.9696	942.74402	-340.82971	960.91541	1092.9491	-172.43155	631.64117	863.64459	-123.87117	461.65466	907.27277	-124.42629	270.18796	903.0415	-85.9379	63.51601	938.56555	-123.99668	29.61107	974.52899	65.71433	34.44132	966.18146	-290.28293	637.21576	1177.00317	-315.8277	458.69943	1145.69324	-434.86691	302.784	1138.84448	-544.26294	116.57235	1083.67834	-591.82495	104.84483	1027.99487	-426.46979	29.99727	1074.24097	NaN	NaN	NaN	NaN	NaN	NaN	NaN	NaN	NaN	NaN	NaN	NaN	NaN	NaN	NaN	NaN	NaN	NaN	NaN	NaN	NaN
136	1.35	-117.82468	1598.48145	943.32489	-123.94687	1610.90613	1075.64221	-248.90327	1564.88269	943.89319	-249.94055	1576.23376	1074.17505	-292.92722	1408.76721	1009.56085	-332.9523	1094.26672	1012.69293	-174.90668	1327.36523	1013.51184	-134.86531	1162.75122	1012.66931	-355.35571	1234.79077	1107.16089	-217.42548	1362.15222	855.04517	-248.75406	1162.90527	791.3999	-257.2561	1038.62646	785.22644	-245.20364	908.92145	792.21295	-238.84465	791.91656	828.44812	-261.10587	796.14575	777.02899	-255.76402	712.37531	792.16437	-221.70241	1354.07227	1171.83826	-194.58176	1136.6803	1247.74609	-154.49551	1031.34692	1260.49121	-97.30227	907.44269	1254.50781	-41.19153	829.50226	1211.9314	-66.03831	812.39386	1256.18945	-19.68019	756.20233	1241.88782	-157.68161	930.58472	906.79779	-175.42624	924.56366	1144.1178	-324.04642	953.80133	942.56952	-331.60556	961.46167	1092.83533	-165.02344	633.31293	863.33545	-116.31271	463.08859	907.19922	-119.77537	270.94846	902.70801	-85.21922	63.65045	939.00238	-123.77844	29.73311	974.46783	66.36732	33.79772	967.31006	-279.80884	637.0213	1177.0376	-304.19342	458.30615	1146.86755	-427.29987	305.23022	1139.49768	-540.30231	121.36853	1084.27722	-587.54846	111.44651	1028.23108	-425.8403	30.03527	1074.36279	-196.85936	1670.745	985.53638	NaN	NaN	NaN	NaN	NaN	NaN	NaN	NaN	NaN	NaN	NaN	NaN	NaN	NaN	NaN	NaN	NaN	NaN
137	1.36	-109.85376	1599.54443	942.20587	-115.95028	1612.15735	1074.51233	-241.02419	1566.10352	942.87115	-242.00719	1577.57837	1073.11206	-284.93222	1409.68152	1008.59027	-324.36887	1095.21802	1012.40424	-166.85428	1328.51843	1012.75702	-126.16919	1164.151	1012.21564	-347.09103	1235.7439	1106.10413	-208.74139	1363.22937	854.21326	-238.78682	1163.85132	790.6947	-246.50424	1039.58435	784.5835	-234.05757	909.90686	791.60248	-227.75711	792.9054	827.91162	-249.56007	797.06097	776.27771	-244.16916	713.25562	791.55981	-213.84669	1355.49683	1170.97144	-187.72708	1137.58093	1246.18481	-148.41985	1031.88831	1258.64502	-92.37086	907.44507	1252.60767	-36.77911	829.08289	1210.08594	-61.99535	812.04889	1254.17834	-16.0926	755.4693	1239.99121	-148.76997	932.52283	906.17242	-166.33165	925.24719	1143.01648	-314.92261	955.6712	942.42853	-322.51031	962.24554	1092.59131	-157.51677	634.99884	862.91675	-109.51818	464.4527	906.96442	-115.78387	271.64697	902.30273	-85.12231	63.94862	938.93555	-123.70667	29.81601	974.47534	66.8271	33.356	966.91571	-268.95108	636.98926	1177.20142	-291.64801	458.11868	1148.36047	-418.55753	307.84677	1140.56592	-535.41357	126.61652	1084.96704	-582.22461	118.673	1028.44165	-425.06311	30.146	1074.35303	NaN	NaN	NaN	NaN	NaN	NaN	NaN	NaN	NaN	NaN	NaN	NaN	NaN	NaN	NaN	NaN	NaN	NaN	NaN	NaN	NaN
